<svg width="55" height="42" viewBox="0 0 55 42" fill="none" xmlns="http://www.w3.org/2000/svg">
<g clip-path="url(#clip0_573_127)">
<path d="M19.5 5.80001C19.5 5.58784 19.5843 5.38436 19.7343 5.23433C19.8843 5.0843 20.0878 5.00001 20.3 5.00001H31.5C31.7122 5.00001 31.9157 5.0843 32.0657 5.23433C32.2157 5.38436 32.3 5.58784 32.3 5.80001C32.3 6.01219 32.2157 6.21567 32.0657 6.3657C31.9157 6.51573 31.7122 6.60001 31.5 6.60001H20.3C20.0878 6.60001 19.8843 6.51573 19.7343 6.3657C19.5843 6.21567 19.5 6.01219 19.5 5.80001ZM28.3 9.80001C28.0878 9.80001 27.8843 9.8843 27.7343 10.0343C27.5843 10.1844 27.5 10.3878 27.5 10.6C27.5 10.8122 27.5843 11.0157 27.7343 11.1657C27.8843 11.3157 28.0878 11.4 28.3 11.4H31.5C31.7122 11.4 31.9157 11.3157 32.0657 11.1657C32.2157 11.0157 32.3 10.8122 32.3 10.6C32.3 10.3878 32.2157 10.1844 32.0657 10.0343C31.9157 9.8843 31.7122 9.80001 31.5 9.80001H28.3ZM27.5 15.4C27.5 15.1878 27.5843 14.9844 27.7343 14.8343C27.8843 14.6843 28.0878 14.6 28.3 14.6H31.5C31.7122 14.6 31.9157 14.6843 32.0657 14.8343C32.2157 14.9844 32.3 15.1878 32.3 15.4C32.3 15.6122 32.2157 15.8157 32.0657 15.9657C31.9157 16.1157 31.7122 16.2 31.5 16.2H28.3C28.0878 16.2 27.8843 16.1157 27.7343 15.9657C27.5843 15.8157 27.5 15.6122 27.5 15.4ZM20.3 9.80001C20.0878 9.80001 19.8843 9.8843 19.7343 10.0343C19.5843 10.1844 19.5 10.3878 19.5 10.6V15.4C19.5 15.6122 19.5843 15.8157 19.7343 15.9657C19.8843 16.1157 20.0878 16.2 20.3 16.2H25.1C25.3122 16.2 25.5157 16.1157 25.6657 15.9657C25.8157 15.8157 25.9 15.6122 25.9 15.4V10.6C25.9 10.3878 25.8157 10.1844 25.6657 10.0343C25.5157 9.8843 25.3122 9.80001 25.1 9.80001H20.3ZM21.1 14.6V11.4H24.3V14.6H21.1ZM14.7 3.40001C14.7 2.55132 15.0371 1.73739 15.6373 1.13727C16.2374 0.537154 17.0513 0.200012 17.9 0.200012H33.9C34.7487 0.200012 35.5626 0.537154 36.1627 1.13727C36.7629 1.73739 37.1 2.55132 37.1 3.40001V5.00001C37.9487 5.00001 38.7626 5.33715 39.3627 5.93727C39.9629 6.53739 40.3 7.35132 40.3 8.20001V17C40.3 18.0609 39.8786 19.0783 39.1284 19.8284C38.3783 20.5786 37.3609 21 36.3 21H18.7C17.6391 21 16.6217 20.5786 15.8716 19.8284C15.1214 19.0783 14.7 18.0609 14.7 17V3.40001ZM35.5 3.40001C35.5 2.97567 35.3314 2.5687 35.0314 2.26864C34.7313 1.96858 34.3243 1.80001 33.9 1.80001H17.9C17.4757 1.80001 17.0687 1.96858 16.7686 2.26864C16.4686 2.5687 16.3 2.97567 16.3 3.40001V17C16.3 17.6365 16.5529 18.247 17.0029 18.6971C17.453 19.1472 18.0635 19.4 18.7 19.4H36.3C36.9365 19.4 37.547 19.1472 37.9971 18.6971C38.4471 18.247 38.7 17.6365 38.7 17V8.20001C38.7 7.77567 38.5314 7.3687 38.2314 7.06864C37.9313 6.76858 37.5243 6.60001 37.1 6.60001V17C37.1 17.2122 37.0157 17.4157 36.8657 17.5657C36.7157 17.7157 36.5122 17.8 36.3 17.8C36.0878 17.8 35.8843 17.7157 35.7343 17.5657C35.5843 17.4157 35.5 17.2122 35.5 17V3.40001Z" fill="#61616B"/>
<path d="M20.4635 33.955L20.2215 34.032V27.85H21.1015V35H20.2215L15.5795 28.906L15.8215 28.829V35H14.9415V27.85H15.8215L20.4635 33.955ZM26.5875 33.229H27.4125C27.3538 33.5883 27.2218 33.911 27.0165 34.197C26.8185 34.4757 26.5545 34.6993 26.2245 34.868C25.9018 35.0293 25.5278 35.11 25.1025 35.11C24.5892 35.11 24.1272 34.989 23.7165 34.747C23.3058 34.4977 22.9795 34.1603 22.7375 33.735C22.5028 33.3023 22.3855 32.811 22.3855 32.261C22.3855 31.711 22.4992 31.2197 22.7265 30.787C22.9612 30.3543 23.2802 30.0133 23.6835 29.764C24.0868 29.5147 24.5415 29.39 25.0475 29.39C25.5828 29.39 26.0338 29.511 26.4005 29.753C26.7745 29.9877 27.0495 30.336 27.2255 30.798C27.4088 31.2527 27.4822 31.8137 27.4455 32.481H23.2655C23.3022 32.8403 23.4012 33.1557 23.5625 33.427C23.7238 33.6983 23.9365 33.911 24.2005 34.065C24.4645 34.2117 24.7652 34.285 25.1025 34.285C25.4765 34.285 25.7918 34.1897 26.0485 33.999C26.3125 33.801 26.4922 33.5443 26.5875 33.229ZM25.0805 30.215C24.6258 30.215 24.2445 30.347 23.9365 30.611C23.6285 30.875 23.4232 31.2343 23.3205 31.689H26.5435C26.5142 31.205 26.3565 30.8383 26.0705 30.589C25.7918 30.3397 25.4618 30.215 25.0805 30.215ZM33.9411 34.197L33.7211 34.186L35.0081 29.5H35.9651L34.2821 35H33.4571L31.8291 30.182H32.0491L30.4211 35H29.5961L27.9241 29.5H28.8811L30.1461 34.186L29.9261 34.197L31.4111 29.5H32.4781L33.9411 34.197ZM36.534 33.229H37.348C37.37 33.5443 37.4873 33.801 37.7 33.999C37.92 34.197 38.2353 34.296 38.646 34.296C38.8953 34.296 39.0897 34.263 39.229 34.197C39.3757 34.131 39.482 34.043 39.548 33.933C39.614 33.8157 39.647 33.6873 39.647 33.548C39.647 33.3793 39.603 33.2473 39.515 33.152C39.4343 33.0493 39.3207 32.965 39.174 32.899C39.0347 32.833 38.8733 32.7707 38.69 32.712C38.4773 32.6313 38.2573 32.547 38.03 32.459C37.81 32.3637 37.601 32.2537 37.403 32.129C37.2123 31.997 37.0583 31.8393 36.941 31.656C36.8237 31.4653 36.765 31.238 36.765 30.974C36.765 30.754 36.809 30.5487 36.897 30.358C36.985 30.16 37.1097 29.9913 37.271 29.852C37.4397 29.7053 37.634 29.5917 37.854 29.511C38.0813 29.4303 38.3307 29.39 38.602 29.39C38.9687 29.39 39.2767 29.4633 39.526 29.61C39.7827 29.7567 39.977 29.9657 40.109 30.237C40.2483 30.501 40.3217 30.809 40.329 31.161H39.57C39.5187 30.831 39.4123 30.5927 39.251 30.446C39.097 30.292 38.8733 30.215 38.58 30.215C38.2793 30.215 38.0483 30.281 37.887 30.413C37.7257 30.545 37.645 30.721 37.645 30.941C37.645 31.1023 37.7037 31.238 37.821 31.348C37.9383 31.4507 38.0887 31.546 38.272 31.634C38.4627 31.7147 38.6643 31.799 38.877 31.887C39.0897 31.975 39.295 32.063 39.493 32.151C39.691 32.239 39.867 32.3417 40.021 32.459C40.175 32.5763 40.296 32.723 40.384 32.899C40.4793 33.0677 40.527 33.2803 40.527 33.537C40.527 33.845 40.4537 34.12 40.307 34.362C40.1677 34.5967 39.9587 34.78 39.68 34.912C39.4087 35.044 39.075 35.11 38.679 35.11C38.3197 35.11 38.0117 35.066 37.755 34.978C37.5057 34.8827 37.2967 34.7617 37.128 34.615C36.9593 34.461 36.8273 34.2997 36.732 34.131C36.644 33.9623 36.5853 33.7973 36.556 33.636C36.5267 33.4747 36.5193 33.339 36.534 33.229Z" fill="#61616B"/>
</g>
<defs>
<clipPath id="clip0_573_127">
<rect width="55" height="41.8" fill="white" transform="translate(0 0.200012)"/>
</clipPath>
</defs>
</svg>
