<svg width="56" height="44" viewBox="0 0 56 44" fill="none" xmlns="http://www.w3.org/2000/svg">
<path d="M24.875 18.75V5.20833L37.375 3.125V16.6667M24.875 18.75C24.875 20.4759 23.4759 21.875 21.75 21.875C20.0241 21.875 18.625 20.4759 18.625 18.75C18.625 17.0241 20.0241 15.625 21.75 15.625C23.4759 15.625 24.875 17.0241 24.875 18.75ZM37.375 16.6667C37.375 18.3926 35.9759 19.7917 34.25 19.7917C32.5241 19.7917 31.125 18.3926 31.125 16.6667C31.125 14.9408 32.5241 13.5417 34.25 13.5417C35.9759 13.5417 37.375 14.9408 37.375 16.6667Z" stroke="#61616B" stroke-width="2" stroke-linecap="round" stroke-linejoin="round"/>
<path d="M5.55807 29.85H11.2781V30.675H5.55807V29.85ZM7.97807 30.587H8.85807V37H7.97807V30.587ZM11.3288 31.5H12.2088V37H11.3288V31.5ZM13.9688 32.325C13.5948 32.325 13.2794 32.4203 13.0228 32.611C12.7734 32.7943 12.5754 33.0217 12.4288 33.293C12.2894 33.557 12.1978 33.8137 12.1538 34.063L12.1428 33.425C12.1428 33.359 12.1574 33.249 12.1868 33.095C12.2161 32.941 12.2711 32.7687 12.3518 32.578C12.4324 32.38 12.5388 32.193 12.6708 32.017C12.8101 31.8337 12.9861 31.6833 13.1988 31.566C13.4114 31.4487 13.6681 31.39 13.9688 31.39V32.325ZM17.0386 37.11C16.606 37.11 16.2063 36.989 15.8396 36.747C15.4803 36.4977 15.1906 36.1603 14.9706 35.735C14.758 35.3023 14.6516 34.811 14.6516 34.261C14.6516 33.711 14.7616 33.2197 14.9816 32.787C15.2016 32.3543 15.4986 32.0133 15.8726 31.764C16.254 31.5147 16.6793 31.39 17.1486 31.39C17.662 31.39 18.0506 31.522 18.3146 31.786C18.586 32.0427 18.7693 32.3873 18.8646 32.82C18.9673 33.2527 19.0186 33.733 19.0186 34.261C19.0186 34.5397 18.9893 34.844 18.9306 35.174C18.872 35.4967 18.7693 35.8083 18.6226 36.109C18.4833 36.4023 18.2853 36.6443 18.0286 36.835C17.772 37.0183 17.442 37.11 17.0386 37.11ZM17.2586 36.274C17.6326 36.274 17.9406 36.1823 18.1826 35.999C18.432 35.8157 18.6153 35.5737 18.7326 35.273C18.85 34.965 18.9086 34.6277 18.9086 34.261C18.9086 33.8577 18.8463 33.5057 18.7216 33.205C18.6043 32.897 18.421 32.6587 18.1716 32.49C17.9296 32.314 17.6253 32.226 17.2586 32.226C16.7086 32.226 16.2833 32.4203 15.9826 32.809C15.682 33.1903 15.5316 33.6743 15.5316 34.261C15.5316 34.6497 15.605 34.998 15.7516 35.306C15.9056 35.6067 16.111 35.845 16.3676 36.021C16.6316 36.1897 16.9286 36.274 17.2586 36.274ZM18.9086 31.5H19.7886V37H18.9856C18.9856 37 18.9783 36.934 18.9636 36.802C18.9563 36.67 18.9453 36.516 18.9306 36.34C18.916 36.164 18.9086 36.0173 18.9086 35.9V31.5ZM26.1063 34.932C26.055 35.3867 25.9083 35.779 25.6663 36.109C25.4317 36.4317 25.1347 36.681 24.7753 36.857C24.416 37.0257 24.0273 37.11 23.6093 37.11C23.14 37.11 22.7 36.9963 22.2893 36.769C21.8787 36.5417 21.545 36.2153 21.2883 35.79C21.039 35.3573 20.9143 34.8477 20.9143 34.261C20.9143 33.6743 21.039 33.1683 21.2883 32.743C21.545 32.3103 21.8787 31.9767 22.2893 31.742C22.7 31.5073 23.14 31.39 23.6093 31.39C24.0273 31.39 24.4123 31.478 24.7643 31.654C25.1237 31.83 25.4207 32.0793 25.6553 32.402C25.8973 32.7247 26.0477 33.1097 26.1063 33.557H25.3033C25.1787 33.139 24.9623 32.8127 24.6543 32.578C24.3463 32.336 23.998 32.215 23.6093 32.215C23.294 32.215 22.997 32.2957 22.7183 32.457C22.4397 32.6183 22.216 32.853 22.0473 33.161C21.8787 33.4617 21.7943 33.8283 21.7943 34.261C21.7943 34.6863 21.8787 35.053 22.0473 35.361C22.216 35.6617 22.436 35.8927 22.7073 36.054C22.986 36.208 23.2867 36.285 23.6093 36.285C24.0567 36.285 24.4197 36.1677 24.6983 35.933C24.9843 35.691 25.1897 35.3573 25.3143 34.932H26.1063ZM27.3592 29.3H28.2392V37H27.3592V29.3ZM31.9132 31.5L29.1632 34.217L29.1852 33.645L32.1002 37H30.9782L28.2612 33.931L30.6592 31.5H31.9132ZM33.0856 37V29.85H35.9016C36.6422 29.85 37.2179 30.0187 37.6286 30.356C38.0466 30.6933 38.2556 31.1627 38.2556 31.764C38.2556 32.138 38.1786 32.4423 38.0246 32.677C37.8779 32.9117 37.6689 33.0877 37.3976 33.205C37.1262 33.3223 36.8072 33.3993 36.4406 33.436L36.4626 33.37C36.7339 33.3847 36.9906 33.4213 37.2326 33.48C37.4746 33.5313 37.6872 33.6157 37.8706 33.733C38.0612 33.8503 38.2116 34.0117 38.3216 34.217C38.4316 34.4223 38.4866 34.6863 38.4866 35.009C38.4866 35.4417 38.3912 35.801 38.2006 36.087C38.0099 36.373 37.7422 36.593 37.3976 36.747C37.0602 36.8937 36.6716 36.978 36.2316 37H33.0856ZM33.9656 36.175H36.0116C36.5102 36.175 36.8989 36.0833 37.1776 35.9C37.4636 35.7093 37.6066 35.4123 37.6066 35.009C37.6066 34.6863 37.5149 34.4443 37.3316 34.283C37.1556 34.1217 36.9282 34.0153 36.6496 33.964C36.3709 33.9053 36.0849 33.876 35.7916 33.876H33.9656V36.175ZM33.9656 33.051H35.7916C36.2902 33.051 36.6789 32.9447 36.9576 32.732C37.2436 32.512 37.3866 32.2003 37.3866 31.797C37.3866 31.401 37.2436 31.115 36.9576 30.939C36.6789 30.763 36.3269 30.675 35.9016 30.675H33.9656V33.051ZM42.0859 37.11C41.6166 37.11 41.1766 36.9963 40.7659 36.769C40.3552 36.5417 40.0216 36.2153 39.7649 35.79C39.5156 35.3573 39.3909 34.8477 39.3909 34.261C39.3909 33.6743 39.5156 33.1683 39.7649 32.743C40.0216 32.3103 40.3552 31.9767 40.7659 31.742C41.1766 31.5073 41.6166 31.39 42.0859 31.39C42.5552 31.39 42.9916 31.5073 43.3949 31.742C43.8056 31.9767 44.1356 32.3103 44.3849 32.743C44.6342 33.1683 44.7589 33.6743 44.7589 34.261C44.7589 34.8477 44.6342 35.3573 44.3849 35.79C44.1356 36.2153 43.8056 36.5417 43.3949 36.769C42.9916 36.9963 42.5552 37.11 42.0859 37.11ZM42.0859 36.285C42.3939 36.285 42.6836 36.208 42.9549 36.054C43.2262 35.9 43.4462 35.6727 43.6149 35.372C43.7909 35.064 43.8789 34.6937 43.8789 34.261C43.8789 33.8283 43.7909 33.4617 43.6149 33.161C43.4462 32.853 43.2262 32.6183 42.9549 32.457C42.6836 32.2957 42.3939 32.215 42.0859 32.215C41.7779 32.215 41.4846 32.2957 41.2059 32.457C40.9346 32.611 40.7109 32.842 40.5349 33.15C40.3589 33.4507 40.2709 33.821 40.2709 34.261C40.2709 34.6937 40.3552 35.064 40.5239 35.372C40.6999 35.6727 40.9272 35.9 41.2059 36.054C41.4846 36.208 41.7779 36.285 42.0859 36.285ZM50.2245 31.5L48.0905 34.492L46.3415 37H45.2745L47.5515 33.843L49.1575 31.5H50.2245ZM45.2745 31.5H46.3745L48.0795 33.865L50.3345 37H49.2675L47.4855 34.492L45.2745 31.5Z" fill="#61616B"/>
</svg>
