<svg width="56" height="43" viewBox="0 0 56 43" fill="none" xmlns="http://www.w3.org/2000/svg">
<g clip-path="url(#clip0_573_134)">
<path d="M31.4897 0.0693359C32.8513 0.207492 33.9135 1.35692 33.9136 2.75488V4.53027H36.228C37.7189 4.53038 38.9279 5.73967 38.9282 7.23047V19.2998C38.9281 20.7908 37.719 21.9999 36.228 22H19.772C18.281 21.9999 17.0719 20.7908 17.0718 19.2998V7.23047C17.0721 5.73967 18.2811 4.53038 19.772 4.53027H23.1997V2.75488C23.1998 1.26394 24.409 0.0549033 25.8999 0.0546875H31.2144L31.4897 0.0693359ZM18.8726 19.2998C18.8727 19.7967 19.2751 20.1991 19.772 20.1992H36.228C36.7249 20.1991 37.1283 19.7967 37.1284 19.2998V11.1807L29.4272 13.9111C28.9423 14.083 28.4199 14.1125 27.9214 13.998L27.7095 13.9404L18.8726 11.1367V19.2998ZM19.772 6.33105C19.2752 6.33116 18.8729 6.73378 18.8726 7.23047V9.24805L28.2534 12.2246L28.396 12.2568C28.54 12.2778 28.6882 12.2639 28.8267 12.2148L37.1284 9.27051V7.23047C37.1281 6.73378 36.7248 6.33116 36.228 6.33105H19.772ZM25.8999 1.85547C25.4031 1.85568 25.0006 2.25805 25.0005 2.75488V4.53027H32.1138V2.75488C32.1137 2.28903 31.7598 1.90553 31.3062 1.85938L31.2144 1.85547H25.8999Z" fill="#61616B"/>
<path d="M9.77489 33.47V32.645H12.0189C12.4589 32.645 12.8146 32.5093 13.0859 32.238C13.3646 31.9593 13.5039 31.6 13.5039 31.16C13.5039 30.7053 13.3646 30.346 13.0859 30.082C12.8146 29.8107 12.4589 29.675 12.0189 29.675H9.95089V36H9.07089V28.85H12.0189C12.3489 28.85 12.6569 28.9013 12.9429 29.004C13.2289 29.1067 13.4782 29.257 13.6909 29.455C13.9109 29.653 14.0796 29.895 14.1969 30.181C14.3216 30.467 14.3839 30.7933 14.3839 31.16C14.3839 31.5267 14.3216 31.853 14.1969 32.139C14.0796 32.425 13.9109 32.667 13.6909 32.865C13.4782 33.063 13.2289 33.2133 12.9429 33.316C12.6569 33.4187 12.3489 33.47 12.0189 33.47H9.77489ZM15.5988 30.5H16.4788V36H15.5988V30.5ZM18.2388 31.325C17.8648 31.325 17.5495 31.4203 17.2928 31.611C17.0435 31.7943 16.8455 32.0217 16.6988 32.293C16.5595 32.557 16.4678 32.8137 16.4238 33.063L16.4128 32.425C16.4128 32.359 16.4275 32.249 16.4568 32.095C16.4861 31.941 16.5411 31.7687 16.6218 31.578C16.7025 31.38 16.8088 31.193 16.9408 31.017C17.0801 30.8337 17.2561 30.6833 17.4688 30.566C17.6815 30.4487 17.9381 30.39 18.2388 30.39V31.325ZM21.6166 36.11C21.1473 36.11 20.7073 35.9963 20.2966 35.769C19.886 35.5417 19.5523 35.2153 19.2956 34.79C19.0463 34.3573 18.9216 33.8477 18.9216 33.261C18.9216 32.6743 19.0463 32.1683 19.2956 31.743C19.5523 31.3103 19.886 30.9767 20.2966 30.742C20.7073 30.5073 21.1473 30.39 21.6166 30.39C22.086 30.39 22.5223 30.5073 22.9256 30.742C23.3363 30.9767 23.6663 31.3103 23.9156 31.743C24.165 32.1683 24.2896 32.6743 24.2896 33.261C24.2896 33.8477 24.165 34.3573 23.9156 34.79C23.6663 35.2153 23.3363 35.5417 22.9256 35.769C22.5223 35.9963 22.086 36.11 21.6166 36.11ZM21.6166 35.285C21.9246 35.285 22.2143 35.208 22.4856 35.054C22.757 34.9 22.977 34.6727 23.1456 34.372C23.3216 34.064 23.4096 33.6937 23.4096 33.261C23.4096 32.8283 23.3216 32.4617 23.1456 32.161C22.977 31.853 22.757 31.6183 22.4856 31.457C22.2143 31.2957 21.9246 31.215 21.6166 31.215C21.3086 31.215 21.0153 31.2957 20.7366 31.457C20.4653 31.611 20.2416 31.842 20.0656 32.15C19.8896 32.4507 19.8016 32.821 19.8016 33.261C19.8016 33.6937 19.886 34.064 20.0546 34.372C20.2306 34.6727 20.458 34.9 20.7366 35.054C21.0153 35.208 21.3086 35.285 21.6166 35.285ZM25.4944 30.5H26.3744V38.2H25.4944V30.5ZM26.4954 28.3V29.367H25.3514V28.3H26.4954ZM31.7604 34.229H32.5854C32.5267 34.5883 32.3947 34.911 32.1894 35.197C31.9914 35.4757 31.7274 35.6993 31.3974 35.868C31.0747 36.0293 30.7007 36.11 30.2754 36.11C29.762 36.11 29.3 35.989 28.8894 35.747C28.4787 35.4977 28.1524 35.1603 27.9104 34.735C27.6757 34.3023 27.5584 33.811 27.5584 33.261C27.5584 32.711 27.672 32.2197 27.8994 31.787C28.134 31.3543 28.453 31.0133 28.8564 30.764C29.2597 30.5147 29.7144 30.39 30.2204 30.39C30.7557 30.39 31.2067 30.511 31.5734 30.753C31.9474 30.9877 32.2224 31.336 32.3984 31.798C32.5817 32.2527 32.655 32.8137 32.6184 33.481H28.4384C28.475 33.8403 28.574 34.1557 28.7354 34.427C28.8967 34.6983 29.1094 34.911 29.3734 35.065C29.6374 35.2117 29.938 35.285 30.2754 35.285C30.6494 35.285 30.9647 35.1897 31.2214 34.999C31.4854 34.801 31.665 34.5443 31.7604 34.229ZM30.2534 31.215C29.7987 31.215 29.4174 31.347 29.1094 31.611C28.8014 31.875 28.596 32.2343 28.4934 32.689H31.7164C31.687 32.205 31.5294 31.8383 31.2434 31.589C30.9647 31.3397 30.6347 31.215 30.2534 31.215ZM38.6371 33.932C38.5858 34.3867 38.4391 34.779 38.1971 35.109C37.9624 35.4317 37.6654 35.681 37.3061 35.857C36.9468 36.0257 36.5581 36.11 36.1401 36.11C35.6708 36.11 35.2308 35.9963 34.8201 35.769C34.4094 35.5417 34.0758 35.2153 33.8191 34.79C33.5698 34.3573 33.4451 33.8477 33.4451 33.261C33.4451 32.6743 33.5698 32.1683 33.8191 31.743C34.0758 31.3103 34.4094 30.9767 34.8201 30.742C35.2308 30.5073 35.6708 30.39 36.1401 30.39C36.5581 30.39 36.9431 30.478 37.2951 30.654C37.6544 30.83 37.9514 31.0793 38.1861 31.402C38.4281 31.7247 38.5784 32.1097 38.6371 32.557H37.8341C37.7094 32.139 37.4931 31.8127 37.1851 31.578C36.8771 31.336 36.5288 31.215 36.1401 31.215C35.8248 31.215 35.5278 31.2957 35.2491 31.457C34.9704 31.6183 34.7468 31.853 34.5781 32.161C34.4094 32.4617 34.3251 32.8283 34.3251 33.261C34.3251 33.6863 34.4094 34.053 34.5781 34.361C34.7468 34.6617 34.9668 34.8927 35.2381 35.054C35.5168 35.208 35.8174 35.285 36.1401 35.285C36.5874 35.285 36.9504 35.1677 37.2291 34.933C37.5151 34.691 37.7204 34.3573 37.8451 33.932H38.6371ZM39.373 30.5H42.607V31.325H39.373V30.5ZM40.55 29.07H41.43V36H40.55V29.07ZM43.3826 34.229H44.1966C44.2186 34.5443 44.336 34.801 44.5486 34.999C44.7686 35.197 45.084 35.296 45.4946 35.296C45.744 35.296 45.9383 35.263 46.0776 35.197C46.2243 35.131 46.3306 35.043 46.3966 34.933C46.4626 34.8157 46.4956 34.6873 46.4956 34.548C46.4956 34.3793 46.4516 34.2473 46.3636 34.152C46.283 34.0493 46.1693 33.965 46.0226 33.899C45.8833 33.833 45.722 33.7707 45.5386 33.712C45.326 33.6313 45.106 33.547 44.8786 33.459C44.6586 33.3637 44.4496 33.2537 44.2516 33.129C44.061 32.997 43.907 32.8393 43.7896 32.656C43.6723 32.4653 43.6136 32.238 43.6136 31.974C43.6136 31.754 43.6576 31.5487 43.7456 31.358C43.8336 31.16 43.9583 30.9913 44.1196 30.852C44.2883 30.7053 44.4826 30.5917 44.7026 30.511C44.93 30.4303 45.1793 30.39 45.4506 30.39C45.8173 30.39 46.1253 30.4633 46.3746 30.61C46.6313 30.7567 46.8256 30.9657 46.9576 31.237C47.097 31.501 47.1703 31.809 47.1776 32.161H46.4186C46.3673 31.831 46.261 31.5927 46.0996 31.446C45.9456 31.292 45.722 31.215 45.4286 31.215C45.128 31.215 44.897 31.281 44.7356 31.413C44.5743 31.545 44.4936 31.721 44.4936 31.941C44.4936 32.1023 44.5523 32.238 44.6696 32.348C44.787 32.4507 44.9373 32.546 45.1206 32.634C45.3113 32.7147 45.513 32.799 45.7256 32.887C45.9383 32.975 46.1436 33.063 46.3416 33.151C46.5396 33.239 46.7156 33.3417 46.8696 33.459C47.0236 33.5763 47.1446 33.723 47.2326 33.899C47.328 34.0677 47.3756 34.2803 47.3756 34.537C47.3756 34.845 47.3023 35.12 47.1556 35.362C47.0163 35.5967 46.8073 35.78 46.5286 35.912C46.2573 36.044 45.9236 36.11 45.5276 36.11C45.1683 36.11 44.8603 36.066 44.6036 35.978C44.3543 35.8827 44.1453 35.7617 43.9766 35.615C43.808 35.461 43.676 35.2997 43.5806 35.131C43.4926 34.9623 43.434 34.7973 43.4046 34.636C43.3753 34.4747 43.368 34.339 43.3826 34.229Z" fill="#61616B"/>
</g>
<defs>
<clipPath id="clip0_573_134">
<rect width="56" height="42.9453" fill="white" transform="translate(0 0.0546875)"/>
</clipPath>
</defs>
</svg>
